 <svg  version="1.0" xmlns="http://www.w3.org/2000/svg"  width="250.000000pt" height="250.000000pt" viewBox="0 0 250.000000 250.000000"  preserveAspectRatio="xMidYMid meet">  <g transform="translate(0.000000,250.000000) scale(0.100000,-0.100000)" fill="#d81e05" stroke="none"> <path d="M1099 1966 c-476 -100 -735 -624 -524 -1062 93 -193 274 -342 485 -400 90 -25 290 -25 380 0 261 71 465 275 536 536 25 90 25 290 0 380 -70 258 -278 466 -531 535 -82 23 -263 28 -346 11z m329 -97 c365 -97 568 -478 453 -849 -59 -189 -232 -362 -421 -421 -249 -77 -500 -17 -679 162 -261 260 -261 678 0 938 172 173 406 234 647 170z"/> <path d="M1261 1688 c-8 -18 -52 -68 -97 -113 -114 -110 -136 -172 -95 -260 43 -92 104 -129 213 -130 62 0 82 4 104 21 47 35 67 70 72 127 10 120 -88 207 -183 161 -46 -22 -51 -32 -28 -55 16 -16 23 -17 50 -7 90 34 130 -122 42 -167 -117 -61 -276 69 -223 181 9 20 33 48 52 62 104 81 124 106 137 175 6 32 5 37 -11 37 -12 0 -25 -13 -33 -32z"/> <path d="M1076 1064 c-24 -24 -35 -54 -20 -54 3 0 19 14 34 31 28 29 30 30 59 15 16 -9 31 -21 33 -27 2 -7 15 -1 31 15 25 25 28 26 56 12 16 -9 31 -21 33 -27 2 -7 15 -1 31 15 25 25 28 26 56 12 16 -9 31 -22 34 -31 4 -8 14 -15 22 -15 26 0 -13 57 -48 71 -25 11 -35 10 -59 -4 -26 -15 -31 -15 -44 -2 -20 19 -54 19 -82 -1 -20 -14 -24 -14 -44 0 -33 23 -62 20 -92 -10z"/> <path d="M1018 957 c-26 -22 -48 -57 -48 -76 0 -23 30 -10 45 19 30 58 73 64 120 17 l34 -34 21 29 c38 52 104 43 132 -17 l11 -24 17 31 c32 61 101 59 138 -4 9 -15 24 -28 34 -28 17 0 18 2 2 31 -29 57 -59 79 -105 79 -30 0 -50 -6 -65 -21 l-23 -21 -27 21 c-33 26 -84 27 -115 2 -24 -19 -25 -19 -48 0 -32 26 -89 25 -123 -4z"/> </g> </svg> 